<?xml version="1.0" standalone="no"?>
<!DOCTYPE svg PUBLIC "-//W3C//DTD SVG 20010904//EN"
 "http://www.w3.org/TR/2001/REC-SVG-20010904/DTD/svg10.dtd">
<svg version="1.0" xmlns="http://www.w3.org/2000/svg"
 width="700.000000pt" height="700.000000pt" viewBox="0 0 700.000000 700.000000"
 preserveAspectRatio="xMidYMid meet">
<metadata>
Created by potrace 1.14, written by Peter Selinger 2001-2017
</metadata>
<g transform="translate(0.000000,700.000000) scale(0.100000,-0.100000)"
fill="#000000" stroke="none">
<path d="M3496 6928 c-2 -7 -9 -39 -16 -71 -28 -136 -138 -287 -266 -363 -78
-46 -178 -81 -238 -83 -32 -1 -14 -8 37 -15 68 -9 145 -40 213 -86 46 -30 114
-83 96 -73 -2 1 -50 -91 -107 -205 -354 -710 -727 -1211 -1099 -1477 l-68 -48
32 -13 c63 -27 190 -63 276 -80 104 -19 135 -22 227 -23 66 -1 68 -2 54 -21
-40 -57 -246 -273 -343 -359 -62 -55 -188 -151 -199 -151 -5 0 -16 -6 -24 -14
-9 -7 -38 -21 -65 -31 -48 -19 -48 -19 -27 -36 24 -20 153 -75 196 -84 71 -15
114 -20 178 -20 37 0 67 -2 67 -4 0 -7 -275 -276 -396 -387 -322 -296 -571
-483 -717 -536 l-59 -22 68 -34 c200 -102 443 -184 577 -196 27 -2 50 -6 53
-8 4 -5 -42 -49 -161 -153 -37 -33 -73 -64 -79 -70 -147 -132 -405 -305 -518
-347 -32 -11 -58 -23 -58 -26 0 -23 96 -159 149 -213 93 -93 185 -135 298
-138 19 -1 12 -10 -40 -58 -104 -96 -190 -170 -314 -270 -65 -52 -127 -102
-138 -111 -43 -36 -315 -232 -420 -302 -60 -40 -114 -78 -120 -83 -9 -9 445
-3 605 7 126 9 235 17 265 22 17 2 57 6 90 9 126 11 373 50 515 81 14 3 36 7
50 10 14 3 50 12 80 20 30 9 64 18 75 20 47 8 237 78 325 120 l95 44 -40 -37
c-219 -204 -557 -454 -700 -519 l-50 -22 40 3 c22 2 81 6 130 10 79 5 261 28
321 39 12 3 37 7 55 10 82 13 282 70 373 107 110 44 198 93 266 149 l46 38 49
-45 c28 -25 67 -57 88 -70 20 -14 37 -33 38 -42 4 -81 1 -423 -4 -428 -4 -3
-93 -6 -199 -7 -208 -2 -221 -4 -252 -57 -21 -35 -20 -98 2 -124 49 -58 11
-55 690 -55 426 0 630 3 643 11 62 33 86 105 55 163 -30 57 -43 60 -254 62
-106 1 -196 5 -199 8 -4 3 -6 104 -6 223 1 212 2 218 23 233 12 8 52 40 88 71
l67 56 60 -47 c74 -58 149 -100 250 -140 77 -30 262 -86 320 -96 37 -6 123
-22 152 -28 12 -3 46 -7 75 -10 29 -4 69 -8 88 -11 19 -2 71 -7 115 -10 44 -4
100 -8 123 -10 l44 -4 -74 37 c-90 46 -162 93 -298 196 -110 83 -379 306 -400
331 -7 8 30 -5 81 -29 178 -84 384 -146 654 -195 108 -19 128 -23 230 -36 28
-4 61 -8 74 -11 14 -2 54 -6 90 -9 36 -3 82 -8 101 -10 33 -5 119 -11 260 -21
117 -7 600 -17 600 -11 0 3 -24 20 -52 38 -106 67 -441 307 -514 368 -17 14
-47 38 -65 53 -98 77 -186 150 -299 251 l-126 112 60 8 c127 16 250 101 339
234 43 65 67 107 67 116 0 2 -21 12 -47 22 -120 44 -360 202 -508 333 -11 10
-51 44 -89 77 -128 110 -181 165 -163 166 9 1 20 2 25 3 4 1 32 6 62 10 72 10
73 11 155 34 84 23 264 96 370 150 l77 38 -59 22 c-188 69 -515 332 -984 792
l-137 135 96 1 c59 1 121 8 157 19 69 20 199 78 208 92 4 6 -14 18 -38 28 -51
19 -168 94 -235 149 -116 97 -418 411 -407 422 1 2 39 4 83 5 70 2 171 15 267
34 36 7 177 52 217 68 l30 13 -107 81 c-351 263 -707 748 -1049 1428 -59 116
-110 211 -115 213 -15 6 88 85 156 119 51 26 144 53 187 54 23 0 10 6 -44 18
-153 34 -300 133 -382 258 -35 53 -85 181 -88 227 -3 38 -6 44 -12 24z"/>
</g>
</svg>
